<svg width="32" height="27" viewBox="0 0 32 27" fill="none" xmlns="http://www.w3.org/2000/svg">
<path d="M1.09705 25V16.443C1.09705 16.3344 1.11473 16.2266 1.14941 16.1237L5.0056 4.68065C5.14267 4.27391 5.52402 4 5.95324 4H26.2409C26.6701 4 27.0514 4.27391 27.1885 4.68066L31.0447 16.1237C31.0794 16.2266 31.097 16.3345 31.097 16.443V25C31.097 25.5523 30.6493 26 30.097 26H2.09705C1.54476 26 1.09705 25.5523 1.09705 25Z" stroke="black"/>
<path d="M1.09705 17H10.3763C10.8067 17 11.1889 17.2754 11.325 17.6838L11.8691 19.3162C12.0052 19.7246 12.3874 20 12.8178 20H19.3763C19.8067 20 20.1889 19.7246 20.325 19.3162L20.8691 17.6838C21.0052 17.2754 21.3874 17 21.8178 17H31.097" stroke="black"/>
<circle cx="26.097" cy="5" r="5" fill="#FF2D2D"/>
</svg>
