<svg width="92" height="92" viewBox="0 0 92 92" fill="none" xmlns="http://www.w3.org/2000/svg">
<circle cx="46" cy="46" r="40" fill="#BECFDA"/>
<path d="M70.0977 29.6006C70.0977 29.9098 69.9919 30.1865 69.7803 30.4307C69.585 30.6585 69.3408 30.7969 69.0479 30.8457C68.2666 31.0247 67.4854 31.1712 66.7041 31.2852C65.9391 31.3991 65.1497 31.4723 64.3359 31.5049C63.8802 34.8903 63.4245 37.8932 62.9688 40.5137C62.5293 43.1341 62.0736 45.486 61.6016 47.5693C61.1296 49.6364 60.6413 51.4837 60.1367 53.1113C59.6322 54.7389 59.0951 56.2526 58.5254 57.6523C57.972 59.0521 57.3779 60.3949 56.7432 61.6807C56.1247 62.9502 55.4574 64.2604 54.7412 65.6113C54.6436 65.7904 54.4971 65.9368 54.3018 66.0508C54.1227 66.181 53.9193 66.2461 53.6914 66.2461C53.1868 66.2461 52.8044 66.0671 52.5439 65.709C51.5348 64.2441 50.6234 62.7793 49.8096 61.3145C48.9958 59.8496 48.2633 58.4417 47.6123 57.0908C46.9775 55.7236 46.416 54.4378 45.9277 53.2334C45.4395 52.0127 45.0244 50.9222 44.6826 49.9619C43.7061 52.7939 42.6888 55.4551 41.6309 57.9453C40.5729 60.4193 39.3929 62.82 38.0908 65.1475C37.9932 65.3428 37.8385 65.5055 37.627 65.6357C37.4316 65.7822 37.2201 65.8555 36.9922 65.8555C36.5202 65.8555 36.154 65.6357 35.8936 65.1963C34.4775 62.9014 33.2324 60.5739 32.1582 58.2139C31.084 55.8376 30.1481 53.5182 29.3506 51.2559C28.5693 48.9935 27.902 46.8288 27.3486 44.7617C26.7952 42.6784 26.3395 40.7741 25.9814 39.0488C25.6396 37.3236 25.3711 35.818 25.1758 34.5322C24.9967 33.2464 24.8665 32.2536 24.7852 31.5537C24.3783 31.5212 23.9795 31.4886 23.5889 31.4561C23.1982 31.4235 22.8158 31.391 22.4414 31.3584C22.1159 31.3096 21.8392 31.1631 21.6113 30.9189C21.3997 30.6585 21.2939 30.3656 21.2939 30.04C21.3428 29.6494 21.4893 29.3483 21.7334 29.1367C21.9775 28.9089 22.2624 28.7949 22.5879 28.7949H22.6855C24.541 28.9902 26.4453 29.0879 28.3984 29.0879C29.9609 29.0879 31.5153 29.0309 33.0615 28.917C34.624 28.7868 36.1377 28.5996 37.6025 28.3555H37.7979C38.1722 28.3555 38.4814 28.4857 38.7256 28.7461C38.9697 28.9902 39.0918 29.2751 39.0918 29.6006C39.0918 29.9261 38.986 30.2109 38.7744 30.4551C38.5791 30.6992 38.3187 30.8457 37.9932 30.8945C37.2607 30.9922 36.5202 31.0898 35.7715 31.1875C35.0391 31.2852 34.2822 31.3747 33.501 31.4561C33.5661 32.0583 33.6637 32.8558 33.7939 33.8486C33.9404 34.8252 34.1276 35.9401 34.3555 37.1934C34.5833 38.4303 34.86 39.7812 35.1855 41.2461C35.5273 42.6947 35.9261 44.2002 36.3818 45.7627C36.8538 47.3089 37.3828 48.8877 37.9688 50.499C38.571 52.0941 39.2464 53.6647 39.9951 55.2109C40.7601 53.4043 41.4762 51.5732 42.1436 49.7178C42.8271 47.846 43.4294 45.9661 43.9502 44.0781C44.471 42.1901 44.9105 40.3021 45.2686 38.4141C45.6266 36.5098 45.8708 34.6055 46.001 32.7012C46.0335 32.3757 46.1556 32.1071 46.3672 31.8955C46.5951 31.6676 46.8717 31.5374 47.1973 31.5049C47.5228 31.5049 47.8076 31.6025 48.0518 31.7979C48.2959 31.9932 48.4587 32.2454 48.54 32.5547C48.8818 34.4427 49.2969 36.3307 49.7852 38.2188C50.2734 40.0905 50.8431 41.9948 51.4941 43.9316C52.1615 45.8522 52.9102 47.8053 53.7402 49.791C54.5703 51.7767 55.4899 53.8112 56.499 55.8945C56.9873 54.6413 57.4512 53.2578 57.8906 51.7441C58.3464 50.2305 58.7858 48.5052 59.209 46.5684C59.6322 44.6315 60.0553 42.4342 60.4785 39.9766C60.9017 37.5189 61.3249 34.7113 61.748 31.5537C61.0156 31.5212 60.2832 31.4723 59.5508 31.4072C58.8346 31.3258 58.0941 31.2201 57.3291 31.0898C57.0361 31.041 56.7839 30.9027 56.5723 30.6748C56.377 30.4307 56.2793 30.154 56.2793 29.8447C56.2793 29.4215 56.4176 29.1042 56.6943 28.8926C56.9873 28.6647 57.2721 28.5508 57.5488 28.5508H57.793C59.4206 28.8438 61.0563 28.9902 62.7002 28.9902C63.6768 28.9902 64.6452 28.9414 65.6055 28.8438C66.5658 28.7461 67.526 28.5833 68.4863 28.3555H68.7793C69.1374 28.3555 69.4466 28.4857 69.707 28.7461C69.9674 28.9902 70.0977 29.2751 70.0977 29.6006Z" fill="black"/>
<circle cx="46" cy="46" r="45.25" stroke="#46545D" stroke-width="1.5"/>
</svg>
